<svg width="134" height="143" viewBox="0 0 134 143" fill="none" xmlns="http://www.w3.org/2000/svg">
<path d="M81.5 60L12 90L11.5 82.5L79 53.5C85.2372 50.4354 84.8504 48.8136 80.5 46L32.5 21.5L39 17C39 17 82.5 40 87 41.5C91.5 43 93 41.5 94 37C95 32.5 96.5 8.5 96.5 8.5L104 14.5L101 41.5C100.279 48.3985 101.384 51.4493 105 56L125 81.5L119.5 86.5L102 64C98.5112 59.9372 96.5 59.5 93 68C89.5 76.5 70.5 133 70.5 133L64.5 130.5C64.5 130.5 85 73.5 87.5 66.5C90 59.5 88.4202 57.5934 81.5 60Z" fill="#3A6868" stroke="#2B7A7A" stroke-width="0.25"/>
<path fill-rule="evenodd" clip-rule="evenodd" d="M25.8061 18.0788L1.80612 84.0788C0.281569 89.7182 0.814968 92.4591 4.30612 96.5788L58.3061 138.079C63.9648 142.923 67.3758 142.725 73.8061 139.079L125.806 103.079C132.704 98.5655 134.307 94.5788 132.306 85.0788C130.306 75.5788 106.306 8.57884 106.306 8.57884C104.163 2.38617 101.807 0.578659 94.8061 1.07884C87.8056 1.57902 34.3061 12.0788 34.3061 12.0788C28.7143 13.4743 26.8611 14.7969 25.8061 18.0788ZM38.5295 40.3676C37.4016 38.4296 36.0295 23.8676 36.0295 23.8676C35.7379 20.0649 37.5855 19.1094 42.5295 18.3676C42.5295 18.3676 66.5298 13.3678 73.0295 12.3676C79.5293 11.3674 79.0293 12.3679 76.0295 15.8676C73.0298 19.3674 45.5297 38.8675 43.0295 40.3676C40.5293 41.8677 39.6575 42.3057 38.5295 40.3676ZM26.9513 36.53L16.9514 63.03C15.1665 67.9635 15.9263 67.7617 18.9513 64.53C18.9513 64.53 27.4513 54.03 28.9513 52.03C30.4513 50.03 30.8263 49.53 30.4513 46.53C30.408 46.1829 30.3679 45.8558 30.3295 45.5418L30.3294 45.5416C30.0357 43.1426 29.8358 41.5094 28.9513 37.53C28.784 36.7772 28.6565 36.1491 28.5534 35.6415L28.5534 35.6412L28.5534 35.6412L28.5534 35.6411C28.3307 34.5448 28.2224 34.0113 28.0744 34.0001C27.9342 33.9894 27.7582 34.4478 27.4156 35.3405C27.2868 35.6762 27.1343 36.0733 26.9513 36.53ZM43.5052 64.7366C45.0054 70.2364 60.7769 115.961 63.5052 121.237C66.2334 126.512 68.6913 127.133 74.0052 125.737C79.3191 124.341 111.5 101.5 112.5 100.5C112.524 100.476 112.551 100.45 112.581 100.421C112.629 100.374 112.685 100.322 112.747 100.263C114.252 98.8321 119.488 93.8566 112.5 90C105.047 85.8865 50.5052 61.7366 50.5052 61.7366C43.7057 58.939 42.0049 59.2368 43.5052 64.7366ZM28.5997 65.4903C27.1985 67.2417 25.2872 69.3232 23.2728 71.517C19.5363 75.5862 15.4455 80.0412 13.5997 83.4903C10.7587 88.7989 11.8712 91.0187 15.5997 94.4903C19.3281 97.9619 50.0996 122.49 50.0996 122.49C50.0996 122.49 56.1346 126.146 54.0996 117.99C52.0646 109.835 38.4218 72.0846 36.0997 66.4903C33.7776 60.8961 32.5997 60.4905 28.5997 65.4903ZM47.8237 47.4652C47.8237 47.4652 86.8232 13.9649 92.8237 12.4652C98.8242 10.9654 100.401 13.1708 102.324 17.9652C102.324 17.9652 117.323 64.4652 119.824 73.9652C122.324 83.4651 119.824 84.4651 113.824 82.4652C107.824 80.4652 49.8237 53.9652 49.8237 53.9652C45.3414 51.449 44.9692 50.0255 47.8237 47.4652Z" fill="url(#paint0_linear_0_5)" fill-opacity="0.98"/>
<path fill-rule="evenodd" clip-rule="evenodd" d="M25.8061 18.0788L1.80612 84.0788C0.281569 89.7182 0.814968 92.4591 4.30612 96.5788L58.3061 138.079C63.9648 142.923 67.3758 142.725 73.8061 139.079L125.806 103.079C132.704 98.5655 134.307 94.5788 132.306 85.0788C130.306 75.5788 106.306 8.57884 106.306 8.57884C104.163 2.38617 101.807 0.578659 94.8061 1.07884C87.8056 1.57902 34.3061 12.0788 34.3061 12.0788C28.7143 13.4743 26.8611 14.7969 25.8061 18.0788ZM38.5295 40.3676C37.4016 38.4296 36.0295 23.8676 36.0295 23.8676C35.7379 20.0649 37.5855 19.1094 42.5295 18.3676C42.5295 18.3676 66.5298 13.3678 73.0295 12.3676C79.5293 11.3674 79.0293 12.3679 76.0295 15.8676C73.0298 19.3674 45.5297 38.8675 43.0295 40.3676C40.5293 41.8677 39.6575 42.3057 38.5295 40.3676ZM26.9513 36.53L16.9514 63.03C15.1665 67.9635 15.9263 67.7617 18.9513 64.53C18.9513 64.53 27.4513 54.03 28.9513 52.03C30.4513 50.03 30.8263 49.53 30.4513 46.53C30.408 46.1829 30.3679 45.8558 30.3295 45.5418L30.3294 45.5416C30.0357 43.1426 29.8358 41.5094 28.9513 37.53C28.784 36.7772 28.6565 36.1491 28.5534 35.6415L28.5534 35.6412L28.5534 35.6412L28.5534 35.6411C28.3307 34.5448 28.2224 34.0113 28.0744 34.0001C27.9342 33.9894 27.7582 34.4478 27.4156 35.3405C27.2868 35.6762 27.1343 36.0733 26.9513 36.53ZM43.5052 64.7366C45.0054 70.2364 60.7769 115.961 63.5052 121.237C66.2334 126.512 68.6913 127.133 74.0052 125.737C79.3191 124.341 111.5 101.5 112.5 100.5C112.524 100.476 112.551 100.45 112.581 100.421C112.629 100.374 112.685 100.322 112.747 100.263C114.252 98.8321 119.488 93.8566 112.5 90C105.047 85.8865 50.5052 61.7366 50.5052 61.7366C43.7057 58.939 42.0049 59.2368 43.5052 64.7366ZM28.5997 65.4903C27.1985 67.2417 25.2872 69.3232 23.2728 71.517C19.5363 75.5862 15.4455 80.0412 13.5997 83.4903C10.7587 88.7989 11.8712 91.0187 15.5997 94.4903C19.3281 97.9619 50.0996 122.49 50.0996 122.49C50.0996 122.49 56.1346 126.146 54.0996 117.99C52.0646 109.835 38.4218 72.0846 36.0997 66.4903C33.7776 60.8961 32.5997 60.4905 28.5997 65.4903ZM47.8237 47.4652C47.8237 47.4652 86.8232 13.9649 92.8237 12.4652C98.8242 10.9654 100.401 13.1708 102.324 17.9652C102.324 17.9652 117.323 64.4652 119.824 73.9652C122.324 83.4651 119.824 84.4651 113.824 82.4652C107.824 80.4652 49.8237 53.9652 49.8237 53.9652C45.3414 51.449 44.9692 50.0255 47.8237 47.4652Z" fill="url(#paint1_linear_0_5)"/>
<path d="M1.80612 84.0788L1.33623 83.908L1.32898 83.9279L1.32345 83.9484L1.80612 84.0788ZM25.8061 18.0788L26.276 18.2497L26.2792 18.2408L26.2821 18.2319L25.8061 18.0788ZM4.30612 96.5788L3.92467 96.9021L3.95915 96.9428L4.00144 96.9753L4.30612 96.5788ZM58.3061 138.079L58.6313 137.699L58.6212 137.69L58.6108 137.682L58.3061 138.079ZM73.8061 139.079L74.0527 139.514L74.0723 139.503L74.0907 139.49L73.8061 139.079ZM125.806 103.079L125.532 102.66L125.522 102.668L125.806 103.079ZM106.306 8.57884L105.834 8.7424L105.835 8.74745L106.306 8.57884ZM94.8061 1.07884L94.8418 1.57757L94.8061 1.07884ZM34.3061 12.0788L34.2098 11.5882L34.1974 11.5906L34.1851 11.5937L34.3061 12.0788ZM36.0295 23.8676L35.5309 23.9059L35.5317 23.9145L36.0295 23.8676ZM38.5295 40.3676L38.0974 40.6191V40.6191L38.5295 40.3676ZM42.5295 18.3676L42.6037 18.8621L42.6177 18.86L42.6315 18.8571L42.5295 18.3676ZM76.0295 15.8676L76.4092 16.193L76.0295 15.8676ZM43.0295 40.3676L42.7723 39.9389L43.0295 40.3676ZM16.9514 63.03L16.4835 62.8535L16.4812 62.8599L16.9514 63.03ZM26.9513 36.53L26.4871 36.3441L26.4835 36.3535L26.9513 36.53ZM18.9513 64.53L19.3164 64.8717L19.3287 64.8586L19.34 64.8446L18.9513 64.53ZM30.3295 45.5418L29.8325 45.597L29.8332 45.6026L30.3295 45.5418ZM30.3294 45.5416L30.8264 45.4864L30.8257 45.4808L30.3294 45.5416ZM28.9513 37.53L29.4394 37.4216L28.9513 37.53ZM28.5534 35.6415L29.0434 35.542L29.0429 35.5395L28.5534 35.6415ZM28.5534 35.6412L28.0631 35.7393L28.0639 35.7432L28.5534 35.6412ZM28.5534 35.6412L29.0437 35.5431L29.0413 35.5314L29.0384 35.5199L28.5534 35.6412ZM28.5534 35.6411L28.0633 35.7406L28.0656 35.7516L28.0683 35.7624L28.5534 35.6411ZM28.0744 34.0001L28.0365 34.4986H28.0365L28.0744 34.0001ZM27.4156 35.3405L26.9488 35.1613L27.4156 35.3405ZM63.5052 121.237L63.061 121.466L63.5052 121.237ZM43.5052 64.7366L43.0228 64.8682L43.5052 64.7366ZM74.0052 125.737L73.8781 125.253L74.0052 125.737ZM112.581 100.421L112.234 100.061L112.234 100.061L112.581 100.421ZM112.747 100.263L112.402 99.9002L112.402 99.9002L112.747 100.263ZM112.5 90L112.258 90.4378L112.5 90ZM50.5052 61.7366L50.7077 61.2793L50.6954 61.2742L50.5052 61.7366ZM23.2728 71.517L22.9045 71.1788H22.9045L23.2728 71.517ZM28.5997 65.4903L28.2092 65.178L28.5997 65.4903ZM13.5997 83.4903L13.1588 83.2544L13.5997 83.4903ZM50.0996 122.49L49.788 122.881L49.8131 122.901L49.8406 122.918L50.0996 122.49ZM54.0996 117.99L54.5847 117.869L54.0996 117.99ZM92.8237 12.4652L92.7024 11.9801L92.8237 12.4652ZM47.8237 47.4652L47.4978 47.0858L47.4898 47.0929L47.8237 47.4652ZM102.324 17.9652L102.8 17.8117L102.794 17.7952L102.788 17.7791L102.324 17.9652ZM119.824 73.9652L119.34 74.0924L119.824 73.9652ZM49.8237 53.9652L49.5789 54.4012L49.597 54.4113L49.6159 54.4199L49.8237 53.9652ZM2.27602 84.2497L26.276 18.2497L25.3362 17.908L1.33623 83.908L2.27602 84.2497ZM4.68758 96.2556C2.96691 94.2251 2.02106 92.587 1.66561 90.8011C1.30891 89.0089 1.53354 87.003 2.2888 84.2093L1.32345 83.9484C0.554149 86.794 0.283202 88.9783 0.68485 90.9963C1.08775 93.0206 2.15418 94.8128 3.92467 96.9021L4.68758 96.2556ZM58.6108 137.682L4.6108 96.1824L4.00144 96.9753L58.0014 138.475L58.6108 137.682ZM73.5595 138.644C70.3572 140.46 68.0024 141.357 65.788 141.263C63.5894 141.17 61.4279 140.093 58.6313 137.699L57.981 138.459C60.843 140.909 63.2164 142.155 65.7456 142.262C68.2589 142.369 70.8248 141.344 74.0527 139.514L73.5595 138.644ZM125.522 102.668L73.5215 138.668L74.0907 139.49L126.091 103.49L125.522 102.668ZM131.817 85.1819C132.812 89.9067 132.887 93.1634 131.924 95.7759C130.966 98.3758 128.947 100.427 125.532 102.66L126.08 103.497C129.564 101.218 131.795 99.0185 132.862 96.1217C133.925 93.2376 133.801 89.7509 132.795 84.9758L131.817 85.1819ZM106.306 8.57884C105.835 8.74745 105.835 8.7477 105.836 8.74821C105.836 8.74872 105.836 8.74948 105.836 8.75049C105.837 8.75253 105.838 8.75557 105.84 8.75963C105.843 8.76773 105.847 8.77987 105.853 8.79598C105.864 8.8282 105.882 8.87629 105.904 8.9398C105.95 9.06681 106.017 9.25545 106.105 9.50192C106.282 9.99486 106.54 10.7191 106.87 11.6443C107.53 13.4947 108.476 16.1487 109.616 19.3632C111.897 25.7924 114.959 34.4633 118.084 43.4309C121.208 52.3988 124.395 61.6618 126.925 69.2756C129.46 76.9046 131.324 82.8413 131.817 85.1819L132.795 84.9758C132.288 82.5663 130.401 76.5656 127.874 68.9602C125.342 61.3397 122.153 52.0714 119.028 43.1018C115.903 34.1319 112.84 25.4591 110.559 19.0288C109.418 15.8137 108.472 13.1591 107.812 11.3083C107.482 10.3829 107.223 9.65843 107.047 9.16528C106.959 8.91871 106.891 8.72997 106.846 8.60286C106.823 8.53931 106.806 8.49116 106.794 8.4589C106.788 8.44277 106.784 8.43061 106.781 8.42247C106.78 8.41841 106.779 8.41535 106.778 8.41331C106.778 8.41229 106.777 8.41152 106.777 8.41101C106.777 8.41049 106.777 8.41023 106.306 8.57884ZM94.8418 1.57757C98.3142 1.32947 100.51 1.66724 102.099 2.73407C103.688 3.80172 104.769 5.66623 105.834 8.74239L106.779 8.41529C105.7 5.29878 104.531 3.1632 102.656 1.90397C100.78 0.64392 98.2986 0.328033 94.7705 0.580113L94.8418 1.57757ZM34.3061 12.0788C34.4024 12.5695 34.4026 12.5694 34.403 12.5694C34.4034 12.5693 34.404 12.5692 34.4048 12.569C34.4065 12.5687 34.4089 12.5682 34.4121 12.5676C34.4186 12.5663 34.4283 12.5644 34.4411 12.5619C34.4669 12.5568 34.5053 12.5493 34.556 12.5394C34.6574 12.5195 34.808 12.49 35.0047 12.4515C35.3981 12.3745 35.9762 12.2615 36.7143 12.1174C38.1907 11.8294 40.3076 11.4174 42.8698 10.9213C47.9943 9.92924 54.8997 8.60129 62.0236 7.25775C69.1478 5.91415 76.4892 4.55522 82.4862 3.50106C88.4982 2.44426 93.1236 1.70033 94.8418 1.57757L94.7705 0.580113C92.9883 0.707446 88.3012 1.46356 82.3131 2.51616C76.31 3.57138 68.9639 4.9312 61.8383 6.27507C54.7122 7.61901 47.8052 8.94728 42.6798 9.93955C40.117 10.4357 37.9996 10.8478 36.5228 11.136C35.7845 11.28 35.2062 11.3931 34.8126 11.4701C34.6158 11.5086 34.4651 11.5382 34.3636 11.558C34.3129 11.568 34.2744 11.5755 34.2487 11.5806C34.2358 11.5831 34.2261 11.585 34.2196 11.5863C34.2164 11.5869 34.2139 11.5874 34.2123 11.5877C34.2115 11.5879 34.2108 11.588 34.2104 11.5881C34.21 11.5882 34.2098 11.5882 34.3061 12.0788ZM26.2821 18.2319C26.7856 16.6657 27.4593 15.6172 28.6435 14.7796C29.8567 13.9215 31.6399 13.2595 34.4272 12.564L34.1851 11.5937C31.3805 12.2936 29.4412 12.9906 28.0661 13.9632C26.662 14.9563 25.8816 16.21 25.3301 17.9258L26.2821 18.2319ZM36.0295 23.8676C35.5317 23.9145 35.5317 23.9146 35.5317 23.9147C35.5318 23.9148 35.5318 23.915 35.5318 23.9153C35.5318 23.9157 35.5319 23.9164 35.532 23.9173C35.5322 23.9191 35.5324 23.9218 35.5327 23.9254C35.5334 23.9324 35.5344 23.943 35.5357 23.9569C35.5384 23.9847 35.5423 24.0259 35.5475 24.0796C35.5579 24.1871 35.5732 24.3449 35.5931 24.5463C35.6329 24.9491 35.691 25.5265 35.7642 26.2253C35.9107 27.6228 36.1178 29.507 36.3604 31.4527C36.6028 33.3971 36.8812 35.4085 37.1706 37.0583C37.3151 37.8826 37.4636 38.6233 37.6131 39.2231C37.7582 39.8053 37.9166 40.3086 38.0974 40.6191L38.9617 40.1161C38.8604 39.9422 38.7292 39.5664 38.5834 38.9813C38.442 38.4138 38.2982 37.6989 38.1555 36.8855C37.8704 35.2598 37.5943 33.2673 37.3527 31.329C37.1112 29.3919 36.9048 27.5146 36.7588 26.1211C36.6858 25.4245 36.6279 24.8491 36.5883 24.448C36.5684 24.2474 36.5532 24.0904 36.5429 23.9837C36.5378 23.9303 36.5339 23.8895 36.5312 23.862C36.5299 23.8483 36.5289 23.838 36.5283 23.831C36.528 23.8276 36.5277 23.825 36.5276 23.8233C36.5275 23.8224 36.5274 23.8218 36.5274 23.8213C36.5274 23.8211 36.5273 23.821 36.5273 23.8209C36.5273 23.8208 36.5273 23.8207 36.0295 23.8676ZM42.4553 17.8732C39.9977 18.2419 38.1709 18.6767 37.0103 19.5743C35.7795 20.5261 35.3786 21.919 35.531 23.9059L36.5281 23.8294C36.3888 22.0136 36.7659 21.0274 37.622 20.3653C38.5482 19.649 40.1173 19.2351 42.6037 18.8621L42.4553 17.8732ZM72.9535 11.8734C69.6894 12.3757 62.051 13.8786 55.2432 15.2526C51.8361 15.9403 48.6323 16.5966 46.2802 17.0811C45.1042 17.3233 44.1411 17.5225 43.472 17.6613C43.1374 17.7306 42.8763 17.7848 42.6989 17.8217C42.6102 17.8401 42.5424 17.8542 42.4967 17.8637C42.4739 17.8685 42.4566 17.8721 42.445 17.8745C42.4392 17.8757 42.4349 17.8766 42.4319 17.8772C42.4305 17.8775 42.4294 17.8778 42.4287 17.8779C42.4283 17.878 42.428 17.878 42.4278 17.8781C42.4276 17.8781 42.4275 17.8781 42.5295 18.3676C42.6315 18.8571 42.6316 18.8571 42.6318 18.8571C42.6319 18.857 42.6322 18.857 42.6326 18.8569C42.6333 18.8567 42.6344 18.8565 42.6358 18.8562C42.6387 18.8556 42.6431 18.8547 42.6489 18.8535C42.6604 18.8511 42.6776 18.8475 42.7004 18.8428C42.746 18.8333 42.8137 18.8192 42.9024 18.8008C43.0797 18.7639 43.3406 18.7098 43.675 18.6404C44.3437 18.5018 45.3064 18.3026 46.482 18.0605C48.8331 17.5762 52.0356 16.9201 55.441 16.2328C62.2582 14.8569 69.8699 13.3597 73.1056 12.8618L72.9535 11.8734ZM76.4092 16.193C77.1554 15.3224 77.772 14.5782 78.1608 13.9743C78.3547 13.6731 78.5113 13.3778 78.5926 13.0979C78.6742 12.8167 78.6965 12.4889 78.5289 12.1874C78.3629 11.8884 78.0711 11.7251 77.771 11.6342C77.47 11.543 77.0975 11.5045 76.667 11.5004C75.8032 11.4922 74.5815 11.6229 72.9535 11.8734L73.1056 12.8618C74.7274 12.6122 75.8807 12.493 76.6574 12.5004C77.0472 12.5041 77.3114 12.5398 77.4811 12.5912C77.6517 12.6429 77.6646 12.6906 77.6548 12.673C77.6435 12.6527 77.6736 12.6765 77.6322 12.8191C77.5904 12.9631 77.4931 13.1639 77.3199 13.433C76.9743 13.9698 76.4035 14.663 75.6499 15.5422L76.4092 16.193ZM43.2868 40.7964C44.5605 40.0321 52.0821 34.7658 59.6363 29.2719C63.4192 26.5206 67.2203 23.705 70.2647 21.3572C71.7866 20.1835 73.1223 19.1244 74.1732 18.2476C75.2145 17.3787 76.0033 16.6665 76.4092 16.193L75.6499 15.5422C75.3058 15.9437 74.579 16.6065 73.5325 17.4797C72.4955 18.345 71.1711 19.3953 69.654 20.5653C66.6203 22.905 62.8277 25.7144 59.0481 28.4631C51.4773 33.9692 43.9987 39.203 42.7723 39.9389L43.2868 40.7964ZM38.0974 40.6191C38.3927 41.1265 38.6994 41.53 39.0583 41.7972C39.4368 42.0791 39.8507 42.1924 40.3056 42.1553C40.7357 42.1202 41.1819 41.9523 41.6509 41.7217C42.1237 41.4892 42.6647 41.1696 43.2868 40.7964L42.7723 39.9389C42.1442 40.3157 41.6387 40.6133 41.2096 40.8243C40.7767 41.0372 40.4657 41.1389 40.2243 41.1586C40.0077 41.1762 39.8358 41.1294 39.6555 40.9952C39.4556 40.8463 39.2304 40.5778 38.9617 40.1161L38.0974 40.6191ZM17.4192 63.2066L27.4192 36.7066L26.4835 36.3535L16.4836 62.8535L17.4192 63.2066ZM18.5863 64.1884C17.831 64.9952 17.2334 65.5951 16.7888 65.971C16.5643 66.1608 16.4003 66.2749 16.2895 66.332C16.1448 66.4065 16.2167 66.3219 16.3605 66.3895C16.5385 66.4733 16.5095 66.6285 16.5013 66.4942C16.4949 66.3901 16.5112 66.2026 16.5746 65.904C16.6994 65.3156 16.9763 64.4307 17.4215 63.2001L16.4812 62.8599C16.034 64.0961 15.7365 65.036 15.5964 65.6964C15.5272 66.0221 15.4884 66.3149 15.5031 66.5553C15.516 66.7656 15.5843 67.1295 15.9348 67.2944C16.251 67.4432 16.5706 67.3121 16.7476 67.2209C16.9585 67.1122 17.1903 66.9411 17.4345 66.7346C17.9273 66.3179 18.5591 65.6807 19.3164 64.8717L18.5863 64.1884ZM28.5513 51.73C27.8078 52.7214 25.315 55.8376 22.9992 58.7167C21.8433 60.1538 20.7341 61.5285 19.9139 62.544C19.5039 63.0517 19.166 63.4696 18.9307 63.7606C18.8131 63.906 18.7211 64.0198 18.6585 64.0971C18.6272 64.1358 18.6032 64.1654 18.5871 64.1853C18.5791 64.1953 18.573 64.2028 18.5689 64.2078C18.5668 64.2104 18.5653 64.2123 18.5643 64.2135C18.5638 64.2142 18.5634 64.2147 18.5631 64.215C18.563 64.2151 18.5629 64.2152 18.5628 64.2153C18.5628 64.2154 18.5627 64.2154 18.9513 64.53C19.34 64.8446 19.34 64.8446 19.3401 64.8445C19.3401 64.8444 19.3402 64.8443 19.3404 64.8442C19.3406 64.8438 19.341 64.8434 19.3415 64.8427C19.3426 64.8414 19.3441 64.8395 19.3462 64.837C19.3503 64.8319 19.3564 64.8244 19.3644 64.8144C19.3806 64.7945 19.4045 64.7649 19.4359 64.7261C19.4985 64.6487 19.5906 64.5349 19.7083 64.3894C19.9437 64.0983 20.2817 63.6802 20.6919 63.1723C21.5123 62.1565 22.6219 60.7813 23.7785 59.3434C26.0877 56.4725 28.5949 53.3387 29.3513 52.33L28.5513 51.73ZM29.9552 46.5921C30.1416 48.083 30.1273 48.8656 29.9272 49.5059C29.7238 50.1568 29.3173 50.7087 28.5513 51.73L29.3513 52.33C30.0854 51.3514 30.6164 50.6533 30.8817 49.8042C31.1504 48.9445 31.1361 47.9771 30.9475 46.468L29.9552 46.5921ZM29.8332 45.6026C29.8716 45.9165 29.9117 46.2442 29.9552 46.5921L30.9475 46.468C30.9042 46.1216 30.8642 45.7951 30.8258 45.481L29.8332 45.6026ZM29.8325 45.5968L29.8325 45.597L30.8264 45.4866L30.8264 45.4864L29.8325 45.5968ZM28.4633 37.6385C29.3431 41.5972 29.5407 43.2136 29.8331 45.6024L30.8257 45.4808C30.5308 43.0716 30.3284 41.4215 29.4394 37.4216L28.4633 37.6385ZM28.0634 35.741C28.1665 36.2487 28.2949 36.8808 28.4633 37.6385L29.4394 37.4216C29.2732 36.6737 29.1465 36.0495 29.0434 35.542L28.0634 35.741ZM28.0639 35.7432L28.0639 35.7435L29.0429 35.5395L29.0429 35.5392L28.0639 35.7432ZM28.0631 35.7392L28.0631 35.7393L29.0437 35.5432L29.0437 35.5431L28.0631 35.7392ZM28.0683 35.7624L28.0683 35.7624L29.0384 35.5199L29.0384 35.5199L28.0683 35.7624ZM28.0365 34.4986C27.8978 34.4881 27.8094 34.4174 27.7724 34.38C27.7383 34.3454 27.7279 34.3201 27.7334 34.3311C27.7443 34.3528 27.7682 34.4145 27.8032 34.544C27.8714 34.7966 27.9504 35.1845 28.0633 35.7406L29.0434 35.5416C28.9337 35.0014 28.8472 34.5744 28.7686 34.2833C28.7302 34.1411 28.6854 33.9988 28.6274 33.883C28.5985 33.8253 28.5535 33.7479 28.4843 33.6777C28.4123 33.6046 28.2881 33.5149 28.1123 33.5015L28.0365 34.4986ZM27.8824 35.5196C28.0568 35.0653 28.1791 34.7474 28.2744 34.542C28.3235 34.4364 28.3516 34.3914 28.3605 34.3795C28.3648 34.3737 28.3479 34.3986 28.307 34.4274C28.2623 34.4587 28.1674 34.5086 28.0365 34.4986L28.1123 33.5015C27.9464 33.4889 27.8153 33.5508 27.7328 33.6086C27.654 33.6639 27.5978 33.7298 27.5605 33.7794C27.4863 33.8784 27.4227 34.0018 27.3674 34.121C27.254 34.3652 27.1171 34.7229 26.9488 35.1613L27.8824 35.5196ZM27.4155 36.716C27.6 36.2555 27.7536 35.8553 27.8824 35.5196L26.9488 35.1613C26.8199 35.4971 26.6687 35.8911 26.4872 36.3441L27.4155 36.716ZM63.9493 121.007C63.2851 119.723 61.8001 115.912 59.9093 110.783C58.0249 105.673 55.7518 99.2934 53.5166 92.9057C49.0421 80.1189 44.7318 67.3336 43.9875 64.605L43.0228 64.8682C43.7787 67.6395 48.1043 80.4665 52.5727 93.236C54.8089 99.6264 57.084 106.011 58.971 111.129C60.8516 116.23 62.3611 120.113 63.061 121.466L63.9493 121.007ZM73.8781 125.253C71.2333 125.948 69.4287 126.1 67.9693 125.523C66.5218 124.951 65.2972 123.613 63.9493 121.007L63.061 121.466C64.4414 124.135 65.8099 125.745 67.6018 126.453C69.3819 127.157 71.4632 126.921 74.1322 126.22L73.8781 125.253ZM112.146 100.146C112.147 100.146 112.144 100.149 112.136 100.156C112.129 100.163 112.119 100.171 112.106 100.182C112.08 100.204 112.046 100.232 112.004 100.267C111.918 100.335 111.802 100.425 111.658 100.535C111.37 100.755 110.973 101.05 110.481 101.411C109.498 102.132 108.14 103.11 106.521 104.261C103.283 106.563 99.0032 109.554 94.5891 112.556C90.1742 115.56 85.6285 118.573 81.8569 120.921C79.9707 122.095 78.2828 123.1 76.9041 123.854C75.5098 124.616 74.4755 125.096 73.8781 125.253L74.1322 126.22C74.8633 126.028 75.9971 125.489 77.3837 124.731C78.7859 123.965 80.4917 122.949 82.3854 121.77C86.1736 119.411 90.7319 116.39 95.1515 113.383C99.5719 110.376 103.857 107.382 107.1 105.076C108.722 103.924 110.084 102.942 111.072 102.218C111.567 101.855 111.969 101.556 112.264 101.331C112.545 101.117 112.762 100.945 112.854 100.854L112.146 100.146ZM112.234 100.061C112.202 100.091 112.173 100.12 112.146 100.146L112.854 100.854C112.875 100.833 112.899 100.808 112.928 100.781L112.234 100.061ZM112.402 99.9002C112.341 99.9587 112.283 100.013 112.234 100.061L112.928 100.781C112.975 100.736 113.029 100.684 113.091 100.625L112.402 99.9002ZM112.258 90.4378C113.946 91.3695 114.833 92.3343 115.243 93.2361C115.648 94.129 115.615 95.0242 115.333 95.8855C114.755 97.6518 113.169 99.1716 112.402 99.9002L113.091 100.625C113.83 99.9231 115.614 98.2399 116.283 96.1967C116.625 95.1533 116.684 93.992 116.153 92.8227C115.626 91.6622 114.547 90.5589 112.742 89.5623L112.258 90.4378ZM50.5052 61.7366C50.3027 62.1938 50.3029 62.1939 50.3033 62.1941C50.3038 62.1943 50.3044 62.1945 50.3052 62.1949C50.3069 62.1956 50.3093 62.1967 50.3126 62.1982C50.3192 62.2011 50.3291 62.2055 50.3422 62.2113C50.3685 62.2229 50.4076 62.2403 50.4593 62.2632C50.5627 62.309 50.7163 62.377 50.9169 62.4659C51.3181 62.6438 51.9076 62.9052 52.6605 63.2394C54.1662 63.9077 56.3257 64.867 58.9404 66.0311C64.1698 68.3593 71.2198 71.5063 78.5025 74.7817C93.0835 81.3396 108.555 88.3938 112.258 90.4378L112.742 89.5623C108.992 87.4927 93.4659 80.4152 78.9127 73.8697C71.6284 70.5936 64.5772 67.446 59.3471 65.1175C56.732 63.9533 54.5722 62.9938 53.0661 62.3253C52.3131 61.9911 51.7235 61.7296 51.3221 61.5517C51.1215 61.4628 50.9678 61.3947 50.8644 61.3489C50.8126 61.326 50.7735 61.3086 50.7472 61.297C50.7341 61.2912 50.7242 61.2868 50.7176 61.2838C50.7142 61.2824 50.7118 61.2813 50.7101 61.2805C50.7093 61.2802 50.7086 61.2799 50.7082 61.2797C50.7078 61.2795 50.7076 61.2794 50.5052 61.7366ZM43.9875 64.605C43.6148 63.2386 43.4603 62.2581 43.5085 61.5902C43.5322 61.2622 43.603 61.0422 43.6936 60.8951C43.7786 60.7572 43.8957 60.6587 44.07 60.5926C44.4577 60.4457 45.1271 60.4594 46.2079 60.7361C47.2648 61.0066 48.6195 61.5014 50.3149 62.199L50.6954 61.2742C48.9911 60.573 47.5834 60.0559 46.4559 59.7673C45.3524 59.4849 44.4155 59.3923 43.7156 59.6575C43.346 59.7976 43.0491 60.0348 42.8422 60.3705C42.641 60.6971 42.5422 61.0886 42.5111 61.5182C42.4499 62.3655 42.6454 63.4847 43.0228 64.8682L43.9875 64.605ZM23.6411 71.8551C25.6515 69.6658 27.576 67.5702 28.9901 65.8027L28.2092 65.178C26.8211 66.9131 24.9229 68.9807 22.9045 71.1788L23.6411 71.8551ZM14.0405 83.7262C15.8492 80.3466 19.885 75.9457 23.6411 71.8551L22.9045 71.1788C19.1877 75.2266 15.0418 79.7359 13.1588 83.2544L14.0405 83.7262ZM15.9404 94.1244C14.0775 92.3899 12.9741 91.0567 12.6228 89.5646C12.2759 88.091 12.6392 86.3447 14.0405 83.7262L13.1588 83.2544C11.7191 85.9445 11.2182 87.9624 11.6494 89.7938C12.0762 91.6066 13.3934 93.1192 15.2589 94.8563L15.9404 94.1244ZM50.0996 122.49C50.4113 122.099 50.4112 122.099 50.4109 122.099C50.4107 122.099 50.4103 122.099 50.4099 122.098C50.4089 122.097 50.4075 122.096 50.4057 122.095C50.402 122.092 50.3964 122.087 50.389 122.082C50.3742 122.07 50.3521 122.052 50.3229 122.029C50.2646 121.982 50.178 121.913 50.0649 121.823C49.8387 121.643 49.5063 121.377 49.0821 121.039C48.2335 120.361 47.017 119.39 45.5456 118.213C42.6028 115.859 38.6402 112.685 34.5613 109.403C26.3913 102.828 17.7874 95.8442 15.9404 94.1244L15.2589 94.8563C17.1404 96.608 25.7865 103.625 33.9343 110.182C38.0143 113.465 41.9777 116.64 44.921 118.994C46.3927 120.171 47.6094 121.143 48.4582 121.82C48.8826 122.159 49.215 122.424 49.4413 122.605C49.5545 122.695 49.6411 122.764 49.6995 122.811C49.7287 122.834 49.7508 122.852 49.7656 122.863C49.773 122.869 49.7786 122.874 49.7823 122.877C49.7842 122.878 49.7856 122.879 49.7865 122.88C49.787 122.881 49.7874 122.881 49.7876 122.881C49.7878 122.881 49.788 122.881 50.0996 122.49ZM53.6145 118.111C54.1168 120.125 54.0913 121.307 53.8608 121.97C53.7501 122.288 53.5958 122.477 53.4351 122.593C53.2711 122.712 53.0665 122.78 52.8208 122.8C52.3121 122.843 51.7099 122.677 51.1977 122.47C50.9492 122.37 50.7364 122.266 50.5862 122.188C50.5114 122.149 50.4527 122.117 50.4135 122.094C50.394 122.083 50.3793 122.075 50.37 122.069C50.3654 122.067 50.3621 122.065 50.3602 122.064C50.3592 122.063 50.3586 122.063 50.3583 122.062C50.3582 122.062 50.3582 122.062 50.3582 122.062C50.3583 122.062 50.3584 122.062 50.3584 122.062C50.3585 122.063 50.3587 122.063 50.0996 122.49C49.8406 122.918 49.8408 122.918 49.841 122.918C49.8411 122.918 49.8413 122.918 49.8415 122.919C49.842 122.919 49.8425 122.919 49.8431 122.919C49.8443 122.92 49.8459 122.921 49.8478 122.922C49.8517 122.925 49.857 122.928 49.8637 122.932C49.8771 122.94 49.8961 122.951 49.9203 122.964C49.9685 122.992 50.0375 123.03 50.1237 123.075C50.2956 123.164 50.5384 123.283 50.8238 123.398C51.3796 123.622 52.159 123.86 52.9046 123.797C53.2861 123.765 53.6769 123.652 54.0214 123.403C54.3692 123.151 54.6365 122.784 54.8054 122.298C55.1341 121.353 55.0999 119.934 54.5847 117.869L53.6145 118.111ZM35.6379 66.682C36.7928 69.4645 40.7794 80.2871 44.736 91.4469C48.6952 102.614 52.6043 114.063 53.6145 118.111L54.5847 117.869C53.56 113.762 49.6301 102.258 45.6786 91.1127C41.7245 79.96 37.7286 69.1104 36.5615 66.2986L35.6379 66.682ZM28.9901 65.8027C29.9866 64.5571 30.7827 63.6804 31.4483 63.1382C32.1229 62.5887 32.5718 62.4581 32.8989 62.5111C33.2302 62.5648 33.6176 62.8351 34.0951 63.5489C34.5652 64.2516 35.0586 65.2865 35.6379 66.682L36.5615 66.2986C35.9797 64.8971 35.4551 63.7834 34.9262 62.9929C34.4048 62.2135 33.8123 61.646 33.0588 61.524C32.3012 61.4012 31.5605 61.7571 30.8167 62.3629C30.0639 62.9761 29.2128 63.9236 28.2092 65.178L28.9901 65.8027ZM92.7024 11.9801C92.2665 12.089 91.719 12.3313 91.0944 12.6641C90.4623 13.0008 89.7229 13.4456 88.896 13.9796C87.2419 15.0479 85.2162 16.487 82.9623 18.1656C78.4535 21.5237 73.0094 25.8573 67.7575 30.1401C62.5046 34.4237 57.4399 38.66 53.6887 41.8252C51.813 43.4078 50.2655 44.7228 49.1868 45.6422C48.6475 46.102 48.2254 46.4628 47.938 46.7087C47.7943 46.8317 47.6844 46.9259 47.6103 46.9894C47.5732 47.0212 47.5452 47.0453 47.5263 47.0615C47.5169 47.0695 47.5098 47.0756 47.5051 47.0797C47.5027 47.0817 47.5009 47.0833 47.4997 47.0843C47.4991 47.0848 47.4987 47.0852 47.4984 47.0855C47.4981 47.0857 47.4979 47.0859 47.8237 47.4652C48.1495 47.8444 48.1496 47.8443 48.1499 47.8441C48.1502 47.8438 48.1506 47.8434 48.1512 47.8429C48.1524 47.8419 48.1542 47.8404 48.1565 47.8384C48.1612 47.8344 48.1683 47.8283 48.1776 47.8203C48.1963 47.8042 48.2243 47.7802 48.2612 47.7486C48.3351 47.6852 48.4448 47.5912 48.5883 47.4684C48.8751 47.2229 49.2967 46.8625 49.8355 46.4033C50.9131 45.4848 52.4593 44.1709 54.3336 42.5895C58.0822 39.4265 63.1424 35.194 68.3895 30.9151C73.6375 26.6354 79.0684 22.3127 83.5596 18.9676C85.8058 17.2947 87.8113 15.8706 89.4385 14.8197C90.2523 14.2942 90.9661 13.8655 91.5645 13.5467C92.1704 13.2239 92.6308 13.0288 92.9449 12.9502L92.7024 11.9801ZM102.788 17.7791C101.833 15.3969 100.912 13.5045 99.3885 12.4444C97.8264 11.3578 95.7533 11.2176 92.7024 11.9801L92.9449 12.9502C95.8946 12.213 97.6103 12.4256 98.8174 13.2653C100.063 14.1316 100.892 15.7391 101.86 18.1513L102.788 17.7791ZM120.307 73.8379C119.053 69.0727 114.673 55.0573 110.613 42.2516C108.581 35.8446 106.628 29.7347 105.183 25.2266C104.46 22.9725 103.864 21.1188 103.449 19.8286C103.242 19.1835 103.079 18.6793 102.969 18.3364C102.913 18.1649 102.871 18.0337 102.843 17.9454C102.828 17.9013 102.818 17.8678 102.81 17.8454C102.807 17.8342 102.804 17.8258 102.802 17.8202C102.801 17.8173 102.801 17.8152 102.8 17.8138C102.8 17.8131 102.8 17.8126 102.8 17.8122C102.8 17.8118 102.8 17.8117 102.324 17.9652C101.848 18.1187 101.848 18.1188 101.848 18.1192C101.848 18.1195 101.848 18.1201 101.849 18.1208C101.849 18.1222 101.85 18.1243 101.851 18.1271C101.852 18.1327 101.855 18.1412 101.859 18.1524C101.866 18.1747 101.877 18.2081 101.891 18.2523C101.919 18.3405 101.962 18.4716 102.017 18.643C102.127 18.9859 102.29 19.4899 102.497 20.1349C102.912 21.4248 103.508 23.2782 104.23 25.5319C105.675 30.0394 107.628 36.1482 109.659 42.5538C113.724 55.3731 118.094 69.3577 119.34 74.0924L120.307 73.8379ZM113.666 82.9395C115.178 83.4435 116.513 83.7746 117.625 83.8163C118.742 83.8583 119.714 83.6098 120.384 82.861C121.039 82.1285 121.309 81.0212 121.285 79.5739C121.26 78.1167 120.936 76.2282 120.307 73.8379L119.34 74.0924C119.961 76.4521 120.262 78.2511 120.285 79.5907C120.308 80.9404 120.046 81.7392 119.639 82.1942C119.246 82.633 118.625 82.8532 117.663 82.817C116.697 82.7807 115.47 82.4868 113.982 81.9908L113.666 82.9395ZM49.8237 53.9652C49.6159 54.4199 49.6161 54.42 49.6166 54.4202C49.617 54.4204 49.6177 54.4207 49.6186 54.4212C49.6203 54.422 49.623 54.4232 49.6265 54.4248C49.6335 54.428 49.644 54.4328 49.658 54.4392C49.6859 54.4519 49.7276 54.4709 49.7825 54.4961C49.8925 54.5463 50.0557 54.6208 50.2689 54.7181C50.6952 54.9127 51.3213 55.1984 52.1202 55.5627C53.7179 56.2912 56.0071 57.3343 58.7729 58.5922C64.3045 61.1079 71.7425 64.4832 79.3682 67.921C86.9936 71.3587 94.8077 74.8594 101.091 77.6259C107.359 80.3858 112.137 82.4301 113.666 82.9395L113.982 81.9908C112.51 81.5002 107.788 79.482 101.494 76.7107C95.2147 73.946 87.4037 70.4467 79.7792 67.0094C72.1549 63.5722 64.7179 60.1974 59.1869 57.6819C56.4215 56.4242 54.1326 55.3813 52.535 54.6528C51.7363 54.2886 51.1104 54.003 50.6842 53.8084C50.471 53.7111 50.3079 53.6366 50.198 53.5864C50.143 53.5613 50.1014 53.5423 50.0735 53.5296C50.0596 53.5232 50.049 53.5184 50.042 53.5152C50.0385 53.5136 50.0359 53.5124 50.0341 53.5116C50.0332 53.5112 50.0326 53.5109 50.0321 53.5107C50.0317 53.5105 50.0315 53.5104 49.8237 53.9652ZM47.4898 47.0929C46.7626 47.7453 46.2017 48.3584 45.8647 48.964C45.5188 49.5855 45.3978 50.2218 45.5934 50.8751C45.7817 51.5039 46.2422 52.0745 46.8951 52.6291C47.552 53.1872 48.4482 53.7664 49.5789 54.4012L50.0684 53.5292C48.9581 52.9058 48.1269 52.3635 47.5425 51.867C46.9541 51.3671 46.6596 50.9499 46.5514 50.5883C46.4504 50.2511 46.4914 49.8943 46.7385 49.4502C46.9945 48.9901 47.4576 48.4652 48.1575 47.8374L47.4898 47.0929Z" fill="black" fill-opacity="0.36"/>
<defs>
<linearGradient id="paint0_linear_0_5" x1="30" y1="14" x2="100" y2="4" gradientUnits="userSpaceOnUse">
<stop stop-color="#008080"/>
<stop offset="1" stop-color="#093434"/>
</linearGradient>
<linearGradient id="paint1_linear_0_5" x1="29" y1="26.5" x2="64" y2="132.5" gradientUnits="userSpaceOnUse">
<stop offset="0.0001" stop-color="#4DB9B9" stop-opacity="0.254"/>
<stop offset="1" stop-color="#C6F5F5"/>
</linearGradient>
</defs>
</svg>
