<svg xmlns="http://www.w3.org/2000/svg" width="600" height="260" viewBox="0 0 600 260">
  <!-- Title -->
  <text x="300" y="28" font-size="20" font-family="Inter, Arial, sans-serif" fill="#0f766e" font-weight="600" text-anchor="middle">
    CSV Format Example
  </text>

  <!-- Table -->
  <!-- Header row background -->
  <rect x="100" y="50" width="400" height="36" fill="#e5e5e5" />

  <!-- Grid borders -->
  <rect x="100" y="50" width="400" height="180" fill="none" stroke="#a0a0a0" stroke-width="1" />

  <!-- Vertical lines -->
  <line x1="100" y1="50" x2="100" y2="230" stroke="#a0a0a0" stroke-width="1"/>
  <line x1="250" y1="50" x2="250" y2="230" stroke="#a0a0a0" stroke-width="1"/>
  <line x1="400" y1="50" x2="400" y2="230" stroke="#a0a0a0" stroke-width="1"/>
  <line x1="500" y1="50" x2="500" y2="230" stroke="#a0a0a0" stroke-width="1"/>

  <!-- Horizontal lines (4 rows + header) -->
  <line x1="100" y1="86" x2="500" y2="86" stroke="#a0a0a0" stroke-width="1"/>
  <line x1="100" y1="122" x2="500" y2="122" stroke="#a0a0a0" stroke-width="1"/>
  <line x1="100" y1="158" x2="500" y2="158" stroke="#a0a0a0" stroke-width="1"/>
  <line x1="100" y1="194" x2="500" y2="194" stroke="#a0a0a0" stroke-width="1"/>
  <line x1="100" y1="230" x2="500" y2="230" stroke="#a0a0a0" stroke-width="1"/>

  <!-- Header Text -->
  <text x="125" y="76" font-size="14" font-family="Inter, Arial" font-weight="600" fill="#000">Node1</text>
  <text x="275" y="76" font-size="14" font-family="Inter, Arial" font-weight="600" fill="#000">Node2</text>
  <text x="430" y="76" font-size="14" font-family="Inter, Arial" font-weight="600" fill="#000">Score</text>

  <!-- Example Rows -->
  <text x="125" y="110" font-size="13" font-family="Courier New, monospace" fill="#000">ENSG00000185013</text>
  <text x="275" y="110" font-size="13" font-family="Courier New, monospace" fill="#000">ENSG00000076685</text>
  <text x="430" y="110" font-size="13" font-family="Courier New, monospace" fill="#000">0.999</text>

  <text x="125" y="146" font-size="13" font-family="Courier New, monospace" fill="#000">ENSG00000166548</text>
  <text x="275" y="146" font-size="13" font-family="Courier New, monospace" fill="#000">ENSG00000156136</text>
  <text x="430" y="146" font-size="13" font-family="Courier New, monospace" fill="#000">0.987</text>

  <text x="125" y="182" font-size="13" font-family="Courier New, monospace" fill="#000">ENSG00000114956</text>
  <text x="275" y="182" font-size="13" font-family="Courier New, monospace" fill="#000">ENSG00000116981</text>
  <text x="430" y="182" font-size="13" font-family="Courier New, monospace" fill="#000">0.973</text>

  <text x="125" y="218" font-size="13" font-family="Courier New, monospace" fill="#000">MAPT</text>
  <text x="275" y="218" font-size="13" font-family="Courier New, monospace" fill="#000">LRRK2</text>
  <text x="430" y="218" font-size="13" font-family="Courier New, monospace" fill="#000">0.945</text>

  <text x="5" y="250" font-size="12" font-family="Inter, Arial" fill="#0f766e">Edges weighted by interaction score. Nodes are genes (Ensembl ID and HGNC symbol both accepted)</text>
</svg>
